<svg viewBox="0 0 22 24" fill="none" xmlns="http://www.w3.org/2000/svg">
    <path d="M18.1667 23.6668C17.1945 23.6668 16.3681 23.3266 15.6876 22.646C15.007 21.9654 14.6667 21.1391 14.6667 20.1668C14.6667 20.0307 14.6765 19.8896 14.6959 19.7433C14.7154 19.5971 14.7445 19.4661 14.7834 19.3502L6.55841 14.5668C6.22786 14.8585 5.85841 15.0872 5.45008 15.2528C5.04175 15.4185 4.61397 15.5009 4.16675 15.5002C3.19453 15.5002 2.36814 15.1599 1.68758 14.4793C1.00703 13.7988 0.666748 12.9724 0.666748 12.0002C0.666748 11.0279 1.00703 10.2016 1.68758 9.521C2.36814 8.84044 3.19453 8.50016 4.16675 8.50016C4.61397 8.50016 5.04175 8.583 5.45008 8.74866C5.85841 8.91433 6.22786 9.14261 6.55841 9.4335L14.7834 4.65016C14.7445 4.5335 14.7154 4.40244 14.6959 4.257C14.6765 4.11155 14.6667 3.97039 14.6667 3.8335C14.6667 2.86127 15.007 2.03489 15.6876 1.35433C16.3681 0.673774 17.1945 0.333496 18.1667 0.333496C19.139 0.333496 19.9654 0.673774 20.6459 1.35433C21.3265 2.03489 21.6667 2.86127 21.6667 3.8335C21.6667 4.80572 21.3265 5.63211 20.6459 6.31266C19.9654 6.99322 19.139 7.3335 18.1667 7.3335C17.7195 7.3335 17.2917 7.25105 16.8834 7.08616C16.4751 6.92127 16.1056 6.69261 15.7751 6.40016L7.55008 11.1835C7.58897 11.3002 7.61814 11.4316 7.63758 11.5778C7.65703 11.7241 7.66675 11.8648 7.66675 12.0002C7.66675 12.1363 7.65703 12.2774 7.63758 12.4237C7.61814 12.5699 7.58897 12.7009 7.55008 12.8168L15.7751 17.6002C16.1056 17.3085 16.4751 17.0802 16.8834 16.9153C17.2917 16.7504 17.7195 16.6676 18.1667 16.6668C19.139 16.6668 19.9654 17.0071 20.6459 17.6877C21.3265 18.3682 21.6667 19.1946 21.6667 20.1668C21.6667 21.1391 21.3265 21.9654 20.6459 22.646C19.9654 23.3266 19.139 23.6668 18.1667 23.6668Z"/>
</svg>
