<svg width="1176" height="298" viewBox="0 0 1176 298" fill="none" xmlns="http://www.w3.org/2000/svg">
    <path opacity="0.61" d="M8 238.212C45.2937 257.085 138.695 287.79 213.95 259.625C308.019 224.42 356.161 152.088 504.222 127.408C652.284 102.728 748.307 135.498 849.056 124.972C949.804 114.447 1001.57 97.3886 1038.86 66.9012C1068.7 42.5113 1137.39 22.1379 1168 15" stroke="#2E1A87" stroke-width="4"/>
    <g opacity="0.6" filter="url(#filter0_f_2030_1951)">
        <path d="M8 231.212C45.2937 250.085 138.695 280.79 213.95 252.625C308.019 217.42 354.013 142.653 502.074 117.972C650.135 93.2922 748.307 128.498 849.056 117.972C949.804 107.447 1001.57 90.3886 1038.86 59.9012C1068.7 35.5113 1137.39 15.1379 1168 8" stroke="#A199CE" stroke-width="2"/>
    </g>
    <g filter="url(#filter1_d_2030_1951)">
        <circle cx="150" cy="265" r="30" fill="white"/>
    </g>
    <g filter="url(#filter2_d_2030_1951)">
        <circle cx="554" cy="115" r="30" fill="white"/>
    </g>
    <g filter="url(#filter3_d_2030_1951)">
        <circle cx="1037" cy="64" r="30" fill="white"/>
    </g>
    <g clip-path="url(#clip0_2030_1951)">
        <path d="M150.362 256C147.452 256 145.567 257.15 144.087 259.2C143.819 259.572 143.901 260.082 144.276 260.356L145.849 261.506C146.227 261.782 146.765 261.718 147.061 261.36C147.974 260.257 148.652 259.622 150.078 259.622C151.2 259.622 152.587 260.318 152.587 261.366C152.587 262.159 151.908 262.566 150.801 263.165C149.509 263.863 147.8 264.732 147.8 266.906V267.25C147.8 267.716 148.192 268.094 148.675 268.094H151.318C151.801 268.094 152.193 267.716 152.193 267.25V267.047C152.193 265.54 156.76 265.477 156.76 261.4C156.76 258.329 153.456 256 150.362 256ZM149.996 269.129C148.604 269.129 147.471 270.222 147.471 271.565C147.471 272.908 148.604 274 149.996 274C151.389 274 152.522 272.908 152.522 271.565C152.522 270.222 151.389 269.129 149.996 269.129Z" fill="#0D062B"/>
    </g>
    <path d="M554.75 110.714L558.285 114.249L550.035 122.499H546.5V118.963L554.75 110.714ZM555.928 109.535L557.696 107.767C557.852 107.611 558.064 107.523 558.285 107.523C558.506 107.523 558.718 107.611 558.874 107.767L561.232 110.124C561.309 110.201 561.371 110.293 561.413 110.395C561.454 110.496 561.476 110.604 561.476 110.714C561.476 110.823 561.454 110.932 561.413 111.033C561.371 111.134 561.309 111.226 561.232 111.303L559.463 113.071L555.928 109.535Z" fill="#0D062B"/>
    <path d="M1028.75 55V73H1030.25V67H1045.25V55H1028.75ZM1030.25 56.5H1032.5V58.75H1034.75V56.5H1037V58.75H1039.25V56.5H1041.5V58.75H1043.75V61H1041.5V63.25H1043.75V65.5H1041.5V63.25H1039.25V65.5H1037V63.25H1034.75V65.5H1032.5V63.25H1030.25V61H1032.5V58.75H1030.25V56.5ZM1032.5 61V63.25H1034.75V61H1032.5ZM1034.75 61H1037V58.75H1034.75V61ZM1037 61V63.25H1039.25V61H1037ZM1039.25 61H1041.5V58.75H1039.25V61Z" fill="#0D062B"/>
    <defs>
        <filter id="filter0_f_2030_1951" x="0.748828" y="0.226123" width="1174.28" height="271.574" filterUnits="userSpaceOnUse" color-interpolation-filters="sRGB">
            <feFlood flood-opacity="0" result="BackgroundImageFix"/>
            <feBlend mode="normal" in="SourceGraphic" in2="BackgroundImageFix" result="shape"/>
            <feGaussianBlur stdDeviation="3.4" result="effect1_foregroundBlur_2030_1951"/>
        </filter>
        <filter id="filter1_d_2030_1951" x="117.4" y="232.4" width="65.2" height="65.2" filterUnits="userSpaceOnUse" color-interpolation-filters="sRGB">
            <feFlood flood-opacity="0" result="BackgroundImageFix"/>
            <feColorMatrix in="SourceAlpha" type="matrix" values="0 0 0 0 0 0 0 0 0 0 0 0 0 0 0 0 0 0 127 0" result="hardAlpha"/>
            <feOffset/>
            <feGaussianBlur stdDeviation="1.3"/>
            <feComposite in2="hardAlpha" operator="out"/>
            <feColorMatrix type="matrix" values="0 0 0 0 0 0 0 0 0 0.0508822 0 0 0 0 0.318012 0 0 0 0.38 0"/>
            <feBlend mode="normal" in2="BackgroundImageFix" result="effect1_dropShadow_2030_1951"/>
            <feBlend mode="normal" in="SourceGraphic" in2="effect1_dropShadow_2030_1951" result="shape"/>
        </filter>
        <filter id="filter2_d_2030_1951" x="521.4" y="82.4" width="65.2" height="65.2" filterUnits="userSpaceOnUse" color-interpolation-filters="sRGB">
            <feFlood flood-opacity="0" result="BackgroundImageFix"/>
            <feColorMatrix in="SourceAlpha" type="matrix" values="0 0 0 0 0 0 0 0 0 0 0 0 0 0 0 0 0 0 127 0" result="hardAlpha"/>
            <feOffset/>
            <feGaussianBlur stdDeviation="1.3"/>
            <feComposite in2="hardAlpha" operator="out"/>
            <feColorMatrix type="matrix" values="0 0 0 0 0 0 0 0 0 0.0508822 0 0 0 0 0.318012 0 0 0 0.38 0"/>
            <feBlend mode="normal" in2="BackgroundImageFix" result="effect1_dropShadow_2030_1951"/>
            <feBlend mode="normal" in="SourceGraphic" in2="effect1_dropShadow_2030_1951" result="shape"/>
        </filter>
        <filter id="filter3_d_2030_1951" x="1004.4" y="31.4" width="65.2" height="65.2" filterUnits="userSpaceOnUse" color-interpolation-filters="sRGB">
            <feFlood flood-opacity="0" result="BackgroundImageFix"/>
            <feColorMatrix in="SourceAlpha" type="matrix" values="0 0 0 0 0 0 0 0 0 0 0 0 0 0 0 0 0 0 127 0" result="hardAlpha"/>
            <feOffset/>
            <feGaussianBlur stdDeviation="1.3"/>
            <feComposite in2="hardAlpha" operator="out"/>
            <feColorMatrix type="matrix" values="0 0 0 0 0 0 0 0 0 0.0508822 0 0 0 0 0.318012 0 0 0 0.38 0"/>
            <feBlend mode="normal" in2="BackgroundImageFix" result="effect1_dropShadow_2030_1951"/>
            <feBlend mode="normal" in="SourceGraphic" in2="effect1_dropShadow_2030_1951" result="shape"/>
        </filter>
        <clipPath id="clip0_2030_1951">
            <rect width="14" height="18" fill="white" transform="translate(143 256)"/>
        </clipPath>
    </defs>
</svg>
