<svg viewBox="0 0 20 22" fill="none" xmlns="http://www.w3.org/2000/svg">
    <path d="M1 0C0.447716 0 0 0.447715 0 1V22H1.81818V14.6667H19C19.5523 14.6667 20 14.219 20 13.6667V1C20 0.447716 19.5523 0 19 0H1ZM1.81818 1.83333H4.54545V4.58333H7.27273V1.83333H10V4.58333H12.7273V1.83333H15.4545V4.58333H18.1818V7.33333H15.4545V10.0833H18.1818V12.8333H15.4545V10.0833H12.7273V12.8333H10V10.0833H7.27273V12.8333H4.54545V10.0833H1.81818V7.33333H4.54545V4.58333H1.81818V1.83333ZM4.54545 7.33333V10.0833H7.27273V7.33333H4.54545ZM7.27273 7.33333H10V4.58333H7.27273V7.33333ZM10 7.33333V10.0833H12.7273V7.33333H10ZM12.7273 7.33333H15.4545V4.58333H12.7273V7.33333Z"/>
</svg>
