<svg viewBox="0 0 20 21" fill="none" xmlns="http://www.w3.org/2000/svg">
    <path d="M18.136 9.136L10 1L1 10H3V17C3 17.5304 3.21071 18.0391 3.58579 18.4142C3.96086 18.7893 4.46957 19 5 19H12" stroke-width="2" stroke-linecap="round" stroke-linejoin="round"/>
    <path d="M7 19V13C7 12.4696 7.21071 11.9609 7.58579 11.5858C7.96086 11.2107 8.46957 11 9 11H11C11.467 11 11.896 11.16 12.236 11.428M17 20V20.01M17 17C17.4498 17.0014 17.8868 16.8511 18.2407 16.5734C18.5945 16.2958 18.8444 15.907 18.95 15.4698C19.0557 15.0327 19.0109 14.5726 18.8229 14.1641C18.6349 13.7555 18.3147 13.4222 17.914 13.218C17.5162 13.0142 17.0611 12.951 16.6228 13.0387C16.1845 13.1264 15.7888 13.3598 15.5 13.701" stroke-width="2" stroke-linecap="round" stroke-linejoin="round"/>
</svg>
