<svg viewBox="0 0 38 42" fill="none" xmlns="http://www.w3.org/2000/svg">
    <path fill-rule="evenodd" clip-rule="evenodd" d="M6.5 12.6665C6.5 9.3513 7.81696 6.17187 10.1612 3.82767C12.5054 1.48346 15.6848 0.166504 19 0.166504C22.3152 0.166504 25.4946 1.48346 27.8388 3.82767C30.183 6.17187 31.5 9.3513 31.5 12.6665H33.5833C34.6884 12.6665 35.7482 13.1055 36.5296 13.8869C37.311 14.6683 37.75 15.7281 37.75 16.8332V37.6665C37.75 38.7716 37.311 39.8314 36.5296 40.6128C35.7482 41.3942 34.6884 41.8332 33.5833 41.8332H4.41667C3.3116 41.8332 2.25179 41.3942 1.47039 40.6128C0.688987 39.8314 0.25 38.7716 0.25 37.6665V16.8332C0.25 15.7281 0.688987 14.6683 1.47039 13.8869C2.25179 13.1055 3.3116 12.6665 4.41667 12.6665H6.5ZM19 4.33317C21.2101 4.33317 23.3298 5.21114 24.8926 6.77395C26.4554 8.33675 27.3333 10.4564 27.3333 12.6665H10.6667C10.6667 10.4564 11.5446 8.33675 13.1074 6.77395C14.6702 5.21114 16.7899 4.33317 19 4.33317ZM23.1667 25.1665C23.1666 25.8979 22.9741 26.6164 22.6084 27.2498C22.2427 27.8832 21.7167 28.4091 21.0833 28.7748V31.4165C21.0833 31.969 20.8638 32.4989 20.4731 32.8896C20.0824 33.2803 19.5525 33.4998 19 33.4998C18.4475 33.4998 17.9176 33.2803 17.5269 32.8896C17.1362 32.4989 16.9167 31.969 16.9167 31.4165V28.7748C16.1224 28.3162 15.5016 27.6083 15.1506 26.7609C14.7997 25.9135 14.7381 24.974 14.9755 24.0881C15.2129 23.2021 15.736 22.4193 16.4636 21.8609C17.1913 21.3025 18.0828 20.9999 19 20.9998C20.1051 20.9998 21.1649 21.4388 21.9463 22.2202C22.7277 23.0016 23.1667 24.0614 23.1667 25.1665Z" fill="#666279"/>
</svg>
