<svg viewBox="0 0 24 25" fill="none" xmlns="http://www.w3.org/2000/svg">
    <g clip-path="url(#clip0_2740_1239)">
        <rect y="0.5" width="24" height="24" rx="12" fill="#0088cc"/>
        <path d="M5.42696 12.3682C8.92571 10.8442 11.2582 9.83935 12.4245 9.35391C15.7582 7.96773 16.4501 7.72698 16.902 7.71882C17.0013 7.71723 17.2226 7.74179 17.367 7.85851C17.487 7.95695 17.5207 8.09007 17.5376 8.18354C17.5526 8.27691 17.5732 8.48973 17.5563 8.65585C17.3763 10.5534 16.5945 15.158 16.197 17.2833C16.0301 18.1825 15.6982 18.484 15.3776 18.5135C14.6801 18.5776 14.1513 18.053 13.4763 17.6107C12.4207 16.9182 11.8245 16.4874 10.7988 15.8118C9.61384 15.031 10.3826 14.6019 11.0576 13.9006C11.2338 13.717 14.3051 10.9242 14.3632 10.6709C14.3707 10.6392 14.3782 10.5211 14.307 10.4589C14.2376 10.3964 14.1345 10.4178 14.0595 10.4347C13.9526 10.4587 12.267 11.5739 8.99696 13.7802C8.51884 14.1091 8.08571 14.2694 7.69571 14.261C7.26821 14.2518 6.44321 14.0187 5.83009 13.8196C5.08009 13.5753 4.48196 13.4461 4.53446 13.0312C4.56071 12.8152 4.85884 12.5941 5.42696 12.3682Z" fill="#D9D9D9"/>
    </g>
    <defs>
        <clipPath id="clip0_2740_1239">
            <rect y="0.5" width="24" height="24" rx="12" fill="white"/>
        </clipPath>
    </defs>
</svg>
