<svg viewBox="0 0 28 29" fill="none" xmlns="http://www.w3.org/2000/svg">
    <path d="M22.224 6.22319C21.1544 5.14277 19.8803 4.28614 18.4762 3.70325C17.0721 3.12037 15.5659 2.8229 14.0456 2.82819C7.67562 2.82819 2.48396 8.01986 2.48396 14.3899C2.48396 16.4315 3.02063 18.4149 4.02396 20.1649L2.39062 26.1615L8.51563 24.5515C10.2073 25.4732 12.109 25.9632 14.0456 25.9632C20.4156 25.9632 25.6073 20.7715 25.6073 14.4015C25.6073 11.3099 24.4056 8.40486 22.224 6.22319ZM14.0456 24.0032C12.319 24.0032 10.6273 23.5365 9.14563 22.6615L8.79563 22.4515L5.15563 23.4082L6.12396 19.8615L5.89063 19.4999C4.93133 17.968 4.42196 16.1973 4.42063 14.3899C4.42063 9.09319 8.73729 4.77653 14.034 4.77653C16.6006 4.77653 19.0156 5.77986 20.824 7.59986C21.7194 8.49115 22.4289 9.5513 22.9116 10.7189C23.3942 11.8864 23.6403 13.1382 23.6356 14.4015C23.659 19.6982 19.3423 24.0032 14.0456 24.0032ZM19.319 16.8165C19.0273 16.6765 17.604 15.9765 17.3473 15.8715C17.079 15.7782 16.8923 15.7315 16.694 16.0115C16.4956 16.3032 15.9473 16.9565 15.784 17.1432C15.6206 17.3415 15.4456 17.3649 15.154 17.2132C14.8623 17.0732 13.929 16.7582 12.8323 15.7782C11.969 15.0082 11.3973 14.0632 11.2223 13.7715C11.059 13.4799 11.199 13.3282 11.3506 13.1765C11.479 13.0482 11.6423 12.8382 11.7823 12.6749C11.9223 12.5115 11.9806 12.3832 12.074 12.1965C12.1673 11.9982 12.1206 11.8349 12.0506 11.6949C11.9806 11.5549 11.3973 10.1315 11.164 9.54819C10.9306 8.98819 10.6856 9.05819 10.5106 9.04653H9.95062C9.75229 9.04653 9.44896 9.11653 9.18062 9.40819C8.92396 9.69986 8.17729 10.3999 8.17729 11.8232C8.17729 13.2465 9.21563 14.6232 9.35563 14.8099C9.49563 15.0082 11.3973 17.9249 14.2906 19.1732C14.979 19.4765 15.5156 19.6515 15.9356 19.7799C16.624 20.0015 17.254 19.9665 17.7556 19.8965C18.3156 19.8149 19.4706 19.1965 19.704 18.5199C19.949 17.8432 19.949 17.2715 19.8673 17.1432C19.7856 17.0149 19.6106 16.9565 19.319 16.8165Z"/>
</svg>
