<svg  viewBox="0 0 139 97" fill="none" xmlns="http://www.w3.org/2000/svg">
    <g clip-path="url(#clip0_2740_1326)">
        <mask id="mask0_2740_1326" style="mask-type:luminance" maskUnits="userSpaceOnUse" x="0" y="0" width="139" height="97">
            <path d="M139 0H0V97H139V0Z" fill="white"/>
        </mask>
        <g mask="url(#mask0_2740_1326)">
            <path d="M68.754 5.74146C56.1135 5.74146 49.2052 2.15305 47.2744 0C46.0677 4.30611 48.2397 7.65529 52.3426 8.85143C56.4454 10.0476 66.0992 13.636 66.0992 17.4636C66.0992 21.2913 61.0309 22.4874 60.0656 22.4874C59.1002 22.4874 52.8252 22.4874 53.0666 16.2675C53.2597 11.2916 50.8946 9.56912 49.6877 9.32989C43.6541 18.6598 51.6185 26.7935 59.5829 26.7935C65.9543 26.7935 68.3517 29.9832 68.754 31.5781V27.0327C68.2712 26.7138 67.3059 25.7888 67.3059 24.6405C67.3059 23.4922 68.2712 22.2482 68.754 21.7698V5.74146Z" fill="url(#paint0_linear_2740_1326)"/>
            <path d="M68.7547 69.367C47.4705 50.6117 46.1545 29.1058 47.992 20.5732C49.4857 33.4481 56.1906 43.8394 62.1617 50.394C65.9574 54.5606 68.7547 59.8035 68.7547 65.4629V69.367Z" fill="url(#paint1_linear_2740_1326)"/>
            <path d="M62.5089 16.7735C61.288 16.4984 59.1678 16.7411 60.454 19.9114C58.941 20.6405 55.72 21.1465 54.9391 17.3387C54.5859 15.6163 55.1702 14.5235 56.1012 13.8535C58.2861 12.2809 62.2865 13.0085 62.5741 15.701C62.6091 16.0273 62.5923 16.3844 62.5089 16.7735Z" fill="url(#paint2_linear_2740_1326)"/>
            <path d="M68.7539 5.74145C81.3193 5.74145 88.3029 2.15305 90.2337 0C91.4403 4.3061 89.2683 7.6553 85.1654 8.85144C81.0626 10.0476 71.4088 13.636 71.4088 17.4636C71.4088 21.2913 76.4771 22.4874 77.4424 22.4874C78.4079 22.4874 84.6828 22.4874 84.4414 16.2675C84.2483 11.2916 86.6134 9.56912 87.8203 9.32989C93.8539 18.6598 85.8895 26.7935 77.9251 26.7935C71.5537 26.7935 69.1562 29.9832 68.7539 31.5781V27.0327C69.2366 26.7138 70.2021 25.7888 70.2021 24.6405C70.2021 23.4922 69.2366 22.2482 68.7539 21.7697V5.74145Z" fill="url(#paint3_linear_2740_1326)"/>
            <path d="M69.4648 69.3675C90.5179 50.612 91.4345 29.1061 89.6169 20.5737C88.1424 33.4226 81.7264 43.7978 75.9421 50.3547C72.234 54.5579 69.4648 59.7785 69.4648 65.4057V69.3675Z" fill="url(#paint4_linear_2740_1326)"/>
            <path d="M75.6953 16.8622C76.9087 16.561 79.0343 16.75 77.8297 19.916C79.3607 20.6008 82.5933 21.024 83.2765 17.2395C83.5887 15.5098 82.9606 14.4389 81.9961 13.8009C79.7724 12.3302 75.8338 13.1186 75.6036 15.7914C75.5754 16.1182 75.601 16.4748 75.6953 16.8622Z" fill="url(#paint5_linear_2740_1326)"/>
            <path d="M19.6065 64.9433C26.1657 64.8636 43.1724 66.9051 58.725 75.7085C54.1621 71.9976 42.6731 64.5555 29.266 60.7319C25.016 59.5197 18.579 60.2043 19.5097 64.5608C19.5365 64.6862 19.5687 64.8136 19.6065 64.9433Z" fill="url(#paint6_linear_2740_1326)"/>
            <path d="M10.5975 75.4693C23.0838 74.1935 50.2852 72.8378 59.1995 77.6224C52.7983 73.9543 34.78 67.0007 13.9167 68.5317C12.4942 68.6912 9.83888 70.302 10.5975 75.4693Z" fill="url(#paint7_linear_2740_1326)"/>
            <path d="M68.754 88.7075C72.0731 88.7075 73.2586 86.4399 74.2069 83.33C75.388 79.4565 79.5914 77.6193 83.5277 76.8147C100.272 73.3917 130.412 77.3577 134.189 79.263C137.603 80.9855 137.666 86.0412 137.271 88.3537C119.174 84.1273 82.5047 77.9713 80.6081 87.1577C78.7115 96.3439 72.3103 97.0002 68.754 97.0002C65.2659 97.0002 58.786 96.6211 56.8875 87.5233C54.9889 78.4255 18.2818 84.5224 0.16553 88.708C-0.23002 86.4177 -0.166733 81.4108 3.25082 79.7049C7.03384 77.8167 37.245 73.8848 53.9995 77.2872C57.9146 78.0823 62.1093 79.8848 63.2954 83.7326C64.2447 86.8126 65.2659 88.7075 68.754 88.7075Z" fill="url(#paint8_linear_2740_1326)"/>
            <path d="M79.1855 77.6223C88.0999 72.8377 115.301 74.1934 127.787 75.4692C128.546 70.3019 125.891 68.6912 124.468 68.5317C103.605 67.0006 85.5869 73.9542 79.1855 77.6223Z" fill="url(#paint9_linear_2740_1326)"/>
            <path d="M79.6592 75.709C95.2118 66.9055 112.219 64.864 118.778 64.9438C118.816 64.814 118.848 64.6866 118.875 64.5612C119.805 60.2047 113.368 59.5203 109.118 60.7323C95.7111 64.5559 84.2223 71.998 79.6592 75.709Z" fill="url(#paint10_linear_2740_1326)"/>
        </g>
    </g>
    <defs>
        <linearGradient id="paint0_linear_2740_1326" x1="317.723" y1="-216.917" x2="317.723" y2="-39.3629" gradientUnits="userSpaceOnUse">
            <stop stop-color="#E0E0E0"/>
            <stop offset="1"/>
        </linearGradient>
        <linearGradient id="paint1_linear_2740_1326" x1="317.724" y1="-216.917" x2="317.724" y2="-39.3632" gradientUnits="userSpaceOnUse">
            <stop stop-color="#E0E0E0"/>
            <stop offset="1"/>
        </linearGradient>
        <linearGradient id="paint2_linear_2740_1326" x1="317.723" y1="-216.917" x2="317.723" y2="-39.363" gradientUnits="userSpaceOnUse">
            <stop stop-color="#E0E0E0"/>
            <stop offset="1"/>
        </linearGradient>
        <linearGradient id="paint3_linear_2740_1326" x1="317.723" y1="-216.917" x2="317.723" y2="-39.3629" gradientUnits="userSpaceOnUse">
            <stop stop-color="#E0E0E0"/>
            <stop offset="1"/>
        </linearGradient>
        <linearGradient id="paint4_linear_2740_1326" x1="317.723" y1="-216.917" x2="317.723" y2="-39.3629" gradientUnits="userSpaceOnUse">
            <stop stop-color="#E0E0E0"/>
            <stop offset="1"/>
        </linearGradient>
        <linearGradient id="paint5_linear_2740_1326" x1="317.723" y1="-216.917" x2="317.723" y2="-39.3631" gradientUnits="userSpaceOnUse">
            <stop stop-color="#E0E0E0"/>
            <stop offset="1"/>
        </linearGradient>
        <linearGradient id="paint6_linear_2740_1326" x1="317.723" y1="-216.917" x2="317.723" y2="-39.3632" gradientUnits="userSpaceOnUse">
            <stop stop-color="#E0E0E0"/>
            <stop offset="1"/>
        </linearGradient>
        <linearGradient id="paint7_linear_2740_1326" x1="317.723" y1="-216.917" x2="317.723" y2="-39.363" gradientUnits="userSpaceOnUse">
            <stop stop-color="#E0E0E0"/>
            <stop offset="1"/>
        </linearGradient>
        <linearGradient id="paint8_linear_2740_1326" x1="317.723" y1="-216.916" x2="317.723" y2="-39.3627" gradientUnits="userSpaceOnUse">
            <stop stop-color="#E0E0E0"/>
            <stop offset="1"/>
        </linearGradient>
        <linearGradient id="paint9_linear_2740_1326" x1="317.723" y1="-216.917" x2="317.723" y2="-39.3632" gradientUnits="userSpaceOnUse">
            <stop stop-color="#E0E0E0"/>
            <stop offset="1"/>
        </linearGradient>
        <linearGradient id="paint10_linear_2740_1326" x1="317.722" y1="-216.917" x2="317.722" y2="-39.3628" gradientUnits="userSpaceOnUse">
            <stop stop-color="#E0E0E0"/>
            <stop offset="1"/>
        </linearGradient>
        <clipPath id="clip0_2740_1326">
            <rect width="139" height="97" fill="white"/>
        </clipPath>
    </defs>
</svg>
