<svg viewBox="0 0 20 20" fill="none" xmlns="http://www.w3.org/2000/svg">
    <path d="M2.1875 20C1.60734 20 1.05094 19.7695 0.640704 19.3593C0.230468 18.9491 0 18.3927 0 17.8125L0 2.1875C0 0.98 0.98 0 2.1875 0H12.8125C14.02 0 15 0.98 15 2.1875V17.8125C15 17.9183 14.9925 18.0225 14.9775 18.125H17.8125C17.8954 18.125 17.9749 18.0921 18.0335 18.0335C18.0921 17.9749 18.125 17.8954 18.125 17.8125V10.3562C18.125 10.3048 18.1124 10.2542 18.0882 10.2089C18.064 10.1635 18.029 10.1248 17.9862 10.0962L16.6675 9.2175C16.5651 9.14921 16.4771 9.06142 16.4086 8.95913C16.3401 8.85684 16.2924 8.74206 16.2683 8.62135C16.2441 8.50063 16.244 8.37634 16.2679 8.25558C16.2918 8.13481 16.3392 8.01993 16.4075 7.9175C16.4758 7.81507 16.5636 7.72709 16.6659 7.65859C16.7682 7.59009 16.8829 7.5424 17.0037 7.51826C17.1244 7.49412 17.2487 7.49399 17.3694 7.51788C17.4902 7.54177 17.6051 7.58921 17.7075 7.6575L19.0262 8.53625C19.635 8.9425 20 9.625 20 10.3562V17.8125C20 18.3927 19.7695 18.9491 19.3593 19.3593C18.9491 19.7695 18.3927 20 17.8125 20H13.4375C13.3544 19.9994 13.2717 19.9885 13.1913 19.9675C13.0679 19.9892 12.9417 20 12.8125 20H9.0625C8.81386 20 8.5754 19.9012 8.39959 19.7254C8.22377 19.5496 8.125 19.3111 8.125 19.0625V17.5H6.875V19.0625C6.875 19.3111 6.77623 19.5496 6.60041 19.7254C6.4246 19.9012 6.18614 20 5.9375 20H2.1875ZM1.875 17.8125C1.875 17.985 2.015 18.125 2.1875 18.125H5V16.5625C5 16.3139 5.09877 16.0754 5.27459 15.8996C5.4504 15.7238 5.68886 15.625 5.9375 15.625H9.0625C9.31114 15.625 9.5496 15.7238 9.72541 15.8996C9.90123 16.0754 10 16.3139 10 16.5625V18.125H12.8125C12.8954 18.125 12.9749 18.0921 13.0335 18.0335C13.0921 17.9749 13.125 17.8954 13.125 17.8125V2.1875C13.125 2.10462 13.0921 2.02513 13.0335 1.96653C12.9749 1.90792 12.8954 1.875 12.8125 1.875H2.1875C2.10462 1.875 2.02513 1.90792 1.96653 1.96653C1.90792 2.02513 1.875 2.10462 1.875 2.1875V17.8125ZM4.6875 7.5H5.3125C5.56114 7.5 5.7996 7.59877 5.97541 7.77459C6.15123 7.9504 6.25 8.18886 6.25 8.4375C6.25 8.68614 6.15123 8.9246 5.97541 9.10041C5.7996 9.27623 5.56114 9.375 5.3125 9.375H4.6875C4.43886 9.375 4.2004 9.27623 4.02459 9.10041C3.84877 8.9246 3.75 8.68614 3.75 8.4375C3.75 8.18886 3.84877 7.9504 4.02459 7.77459C4.2004 7.59877 4.43886 7.5 4.6875 7.5ZM3.75 4.6875C3.75 4.43886 3.84877 4.2004 4.02459 4.02459C4.2004 3.84877 4.43886 3.75 4.6875 3.75H5.3125C5.56114 3.75 5.7996 3.84877 5.97541 4.02459C6.15123 4.2004 6.25 4.43886 6.25 4.6875C6.25 4.93614 6.15123 5.1746 5.97541 5.35041C5.7996 5.52623 5.56114 5.625 5.3125 5.625H4.6875C4.43886 5.625 4.2004 5.52623 4.02459 5.35041C3.84877 5.1746 3.75 4.93614 3.75 4.6875ZM8.75 8.4375C8.75 8.18886 8.84877 7.9504 9.02459 7.77459C9.2004 7.59877 9.43886 7.5 9.6875 7.5H10.3125C10.5611 7.5 10.7996 7.59877 10.9754 7.77459C11.1512 7.9504 11.25 8.18886 11.25 8.4375C11.25 8.68614 11.1512 8.9246 10.9754 9.10041C10.7996 9.27623 10.5611 9.375 10.3125 9.375H9.6875C9.43886 9.375 9.2004 9.27623 9.02459 9.10041C8.84877 8.9246 8.75 8.68614 8.75 8.4375ZM9.6875 3.75H10.3125C10.5611 3.75 10.7996 3.84877 10.9754 4.02459C11.1512 4.2004 11.25 4.43886 11.25 4.6875C11.25 4.93614 11.1512 5.1746 10.9754 5.35041C10.7996 5.52623 10.5611 5.625 10.3125 5.625H9.6875C9.43886 5.625 9.2004 5.52623 9.02459 5.35041C8.84877 5.1746 8.75 4.93614 8.75 4.6875C8.75 4.43886 8.84877 4.2004 9.02459 4.02459C9.2004 3.84877 9.43886 3.75 9.6875 3.75ZM3.75 12.1875C3.75 11.9389 3.84877 11.7004 4.02459 11.5246C4.2004 11.3488 4.43886 11.25 4.6875 11.25H5.3125C5.56114 11.25 5.7996 11.3488 5.97541 11.5246C6.15123 11.7004 6.25 11.9389 6.25 12.1875C6.25 12.4361 6.15123 12.6746 5.97541 12.8504C5.7996 13.0262 5.56114 13.125 5.3125 13.125H4.6875C4.43886 13.125 4.2004 13.0262 4.02459 12.8504C3.84877 12.6746 3.75 12.4361 3.75 12.1875ZM9.6875 11.25H10.3125C10.5611 11.25 10.7996 11.3488 10.9754 11.5246C11.1512 11.7004 11.25 11.9389 11.25 12.1875C11.25 12.4361 11.1512 12.6746 10.9754 12.8504C10.7996 13.0262 10.5611 13.125 10.3125 13.125H9.6875C9.43886 13.125 9.2004 13.0262 9.02459 12.8504C8.84877 12.6746 8.75 12.4361 8.75 12.1875C8.75 11.9389 8.84877 11.7004 9.02459 11.5246C9.2004 11.3488 9.43886 11.25 9.6875 11.25Z" />
</svg>
