<svg viewBox="0 0 18 20" fill="none" xmlns="http://www.w3.org/2000/svg">
    <path d="M9 19C9.28 19 9.539 18.873 10.058 18.618L14.23 16.574C16.077 15.669 17 15.216 17 14.5V5.5M9 19C8.72 19 8.461 18.873 7.942 18.618L3.77 16.574C1.923 15.669 1 15.216 1 14.5V5.5M9 19V10" stroke="black" stroke-width="1.5" stroke-linecap="round" stroke-linejoin="round"/>
    <path d="M7.942 1.382C8.462 1.127 8.721 1 9 1C9.28 1 9.539 1.127 10.058 1.382L14.23 3.426C16.077 4.331 17 4.784 17 5.5C17 6.216 16.077 6.669 14.23 7.574L10.058 9.618C9.538 9.873 9.279 10 9 10C8.72 10 8.461 9.873 7.942 9.618L3.77 7.574C1.923 6.669 1 6.216 1 5.5C1 4.784 1.923 4.331 3.77 3.426L7.942 1.382Z" stroke="black" stroke-width="1.5" stroke-linecap="round" stroke-linejoin="round"/>
</svg>
