<svg viewBox="0 0 20 22" fill="none" xmlns="http://www.w3.org/2000/svg">
    <path d="M16.5 21.5C18.1569 21.5 19.5 20.1569 19.5 18.5C19.5 16.8431 18.1569 15.5 16.5 15.5C14.8431 15.5 13.5 16.8431 13.5 18.5C13.5 20.1569 14.8431 21.5 16.5 21.5Z" />
    <path d="M4.5 8.75H6V10.25H4.5V8.75ZM4.5 12.5H6V14H4.5V12.5ZM4.5 16.25H6V17.75H4.5V16.25ZM7.5 8.75H13.5V10.25H7.5V8.75ZM7.5 12.5H13.5V14H7.5V12.5ZM7.5 16.25H10.5V17.75H7.5V16.25Z" />
    <path d="M2.25 20V4.25H4.5V6.5H13.5V4.25H15.75V12.5H17.25V4.25C17.25 3.85218 17.092 3.47064 16.8107 3.18934C16.5294 2.90804 16.1478 2.75 15.75 2.75H13.5V2C13.5 1.60218 13.342 1.22064 13.0607 0.93934C12.7794 0.658035 12.3978 0.5 12 0.5H6C5.60218 0.5 5.22064 0.658035 4.93934 0.93934C4.65804 1.22064 4.5 1.60218 4.5 2V2.75H2.25C1.85218 2.75 1.47064 2.90804 1.18934 3.18934C0.908035 3.47064 0.75 3.85218 0.75 4.25V20C0.75 20.3978 0.908035 20.7794 1.18934 21.0607C1.47064 21.342 1.85218 21.5 2.25 21.5H10.5V20H2.25ZM6 2H12V5H6V2Z" />
</svg>
