<svg viewBox="0 0 22 21" fill="none" xmlns="http://www.w3.org/2000/svg">
    <path d="M20.3553 3.93335L11.3553 0.933353C11.1248 0.855549 10.8752 0.855549 10.6447 0.933353L1.64467 3.93335C1.42992 4.00448 1.2416 4.13869 1.1043 4.31848C0.96699 4.49826 0.887075 4.71527 0.874982 4.94116C0.873948 4.96084 0.873948 4.98055 0.874982 5.00023V12.5002C0.874982 12.7986 0.993509 13.0847 1.20449 13.2957C1.41547 13.5067 1.70161 13.6252 1.99998 13.6252C2.29835 13.6252 2.5845 13.5067 2.79548 13.2957C3.00646 13.0847 3.12498 12.7986 3.12498 12.5002V6.56116L5.34779 7.30179C4.65794 8.62226 4.45294 10.1428 4.76847 11.5988C5.08399 13.0548 5.90007 14.3541 7.07467 15.2705C5.53757 16.0285 4.2367 17.1919 3.31248 18.6352C3.22925 18.7589 3.17144 18.8979 3.14241 19.0442C3.11338 19.1904 3.1137 19.341 3.14337 19.4871C3.17303 19.6332 3.23144 19.7719 3.3152 19.8953C3.39896 20.0186 3.50641 20.1241 3.63128 20.2055C3.75616 20.287 3.89598 20.3428 4.04262 20.3697C4.18926 20.3967 4.33979 20.3942 4.48546 20.3624C4.63113 20.3307 4.76904 20.2703 4.89116 20.1848C5.01329 20.0993 5.1172 19.9903 5.19686 19.8643C6.53467 17.8055 8.65623 16.6252 11 16.6252C13.3437 16.6252 15.4653 17.8055 16.8078 19.8643C16.8874 19.9903 16.9914 20.0993 17.1135 20.1848C17.2356 20.2703 17.3735 20.3307 17.5192 20.3624C17.6649 20.3942 17.8154 20.3967 17.962 20.3697C18.1087 20.3428 18.2485 20.287 18.3734 20.2055C18.4982 20.1241 18.6057 20.0186 18.6894 19.8953C18.7732 19.7719 18.8316 19.6332 18.8613 19.4871C18.8909 19.341 18.8913 19.1904 18.8622 19.0442C18.8332 18.8979 18.7754 18.7589 18.6922 18.6352C17.7671 17.1903 16.4645 16.0258 14.9253 15.2677C16.0999 14.3513 16.916 13.052 17.2315 11.596C17.547 10.14 17.342 8.61944 16.6522 7.29898L20.3553 6.06429C20.579 5.98944 20.7735 5.84616 20.9114 5.65471C21.0492 5.46326 21.1234 5.23332 21.1234 4.99742C21.1234 4.76151 21.0492 4.53157 20.9114 4.34012C20.7735 4.14867 20.579 4.00539 20.3553 3.93054V3.93335ZM11 3.18335L16.4422 5.00023L11 6.81429L5.56248 5.00023L11 3.18335ZM15.125 10.2502C15.1251 10.8909 14.976 11.5229 14.6894 12.0959C14.4028 12.669 13.9867 13.1674 13.474 13.5517C12.9613 13.936 12.3662 14.1956 11.7357 14.3099C11.1053 14.4241 10.4569 14.39 9.84194 14.2101C9.22699 14.0302 8.6624 13.7096 8.19291 13.2736C7.72343 12.8376 7.36196 12.2982 7.13718 11.6982C6.91239 11.0982 6.83046 10.4541 6.89788 9.81693C6.96531 9.17977 7.18023 8.56708 7.52561 8.02742L10.6447 9.0671C10.8752 9.14456 11.1248 9.14456 11.3553 9.0671L14.4744 8.02742C14.8998 8.69068 15.1256 9.46225 15.125 10.2502Z" />
</svg>
